<svg xmlns="http://www.w3.org/2000/svg" viewBox="0 0 512 256" preserveAspectRatio="none">
  <!-- White/rim silhouette: a slightly blobby capsule with soft lobes -->
  <path fill="#fff" d="
    M 52 128
    C 52 78 92 42 170 34
    C 205 30 237 30 256 30
    C 275 30 307 30 342 34
    C 420 42 460 78 460 128
    C 460 178 420 214 342 222
    C 307 226 275 226 256 226
    C 237 226 205 226 170 222
    C 92 214 52 178 52 128
    Z

    M 92 128
    C 92 92 122 70 184 66
    C 214 64 238 64 256 64
    C 274 64 298 64 328 66
    C 390 70 420 92 420 128
    C 420 164 390 186 328 190
    C 298 192 274 192 256 192
    C 238 192 214 192 184 190
    C 122 186 92 164 92 128
    Z
  " fill-rule="evenodd"/>
</svg>
